<mxfile host="app.diagrams.net" agent="Mozilla/5.0 (Windows NT 10.0; Win64; x64) AppleWebKit/537.36 (KHTML, like Gecko) Chrome/134.0.0.0 Safari/537.36 Edg/134.0.0.0" version="26.2.4">
  <diagram name="第 1 页" id="DXo22vKbLEdUoYDkd4dg">
    <mxGraphModel dx="415" dy="263" grid="1" gridSize="10" guides="1" tooltips="1" connect="1" arrows="1" fold="1" page="1" pageScale="1" pageWidth="827" pageHeight="1169" math="0" shadow="0">
      <root>
        <mxCell id="0" />
        <mxCell id="1" parent="0" />
        <mxCell id="e20dCup7h8Shn3l8CifW-1" value="" style="rounded=0;whiteSpace=wrap;html=1;" vertex="1" parent="1">
          <mxGeometry x="160" y="400" width="80" height="50" as="geometry" />
        </mxCell>
        <mxCell id="e20dCup7h8Shn3l8CifW-3" value="" style="shape=curlyBracket;whiteSpace=wrap;html=1;rounded=1;labelPosition=left;verticalLabelPosition=middle;align=right;verticalAlign=middle;" vertex="1" parent="1">
          <mxGeometry x="140" y="400" width="20" height="50" as="geometry" />
        </mxCell>
        <mxCell id="e20dCup7h8Shn3l8CifW-4" value="129" style="text;html=1;align=center;verticalAlign=middle;resizable=0;points=[];autosize=1;strokeColor=none;fillColor=none;" vertex="1" parent="1">
          <mxGeometry x="110" y="408" width="40" height="30" as="geometry" />
        </mxCell>
        <mxCell id="e20dCup7h8Shn3l8CifW-5" value="" style="rounded=0;whiteSpace=wrap;html=1;" vertex="1" parent="1">
          <mxGeometry x="160" y="450" width="80" height="50" as="geometry" />
        </mxCell>
        <mxCell id="e20dCup7h8Shn3l8CifW-6" value="" style="shape=curlyBracket;whiteSpace=wrap;html=1;rounded=1;labelPosition=left;verticalLabelPosition=middle;align=right;verticalAlign=middle;" vertex="1" parent="1">
          <mxGeometry x="140" y="450" width="20" height="50" as="geometry" />
        </mxCell>
        <mxCell id="e20dCup7h8Shn3l8CifW-7" value="" style="rounded=0;whiteSpace=wrap;html=1;" vertex="1" parent="1">
          <mxGeometry x="160" y="500" width="80" height="50" as="geometry" />
        </mxCell>
        <mxCell id="e20dCup7h8Shn3l8CifW-8" value="" style="shape=curlyBracket;whiteSpace=wrap;html=1;rounded=1;labelPosition=left;verticalLabelPosition=middle;align=right;verticalAlign=middle;" vertex="1" parent="1">
          <mxGeometry x="140" y="500" width="20" height="50" as="geometry" />
        </mxCell>
        <mxCell id="e20dCup7h8Shn3l8CifW-9" value="" style="rounded=0;whiteSpace=wrap;html=1;" vertex="1" parent="1">
          <mxGeometry x="160" y="550" width="80" height="50" as="geometry" />
        </mxCell>
        <mxCell id="e20dCup7h8Shn3l8CifW-10" value="" style="shape=curlyBracket;whiteSpace=wrap;html=1;rounded=1;labelPosition=left;verticalLabelPosition=middle;align=right;verticalAlign=middle;" vertex="1" parent="1">
          <mxGeometry x="140" y="550" width="20" height="50" as="geometry" />
        </mxCell>
        <mxCell id="e20dCup7h8Shn3l8CifW-11" value="129" style="text;html=1;align=center;verticalAlign=middle;resizable=0;points=[];autosize=1;strokeColor=none;fillColor=none;" vertex="1" parent="1">
          <mxGeometry x="110" y="460" width="40" height="30" as="geometry" />
        </mxCell>
        <mxCell id="e20dCup7h8Shn3l8CifW-12" value="129" style="text;html=1;align=center;verticalAlign=middle;resizable=0;points=[];autosize=1;strokeColor=none;fillColor=none;" vertex="1" parent="1">
          <mxGeometry x="110" y="510" width="40" height="30" as="geometry" />
        </mxCell>
        <mxCell id="e20dCup7h8Shn3l8CifW-13" value="129" style="text;html=1;align=center;verticalAlign=middle;resizable=0;points=[];autosize=1;strokeColor=none;fillColor=none;" vertex="1" parent="1">
          <mxGeometry x="110" y="560" width="40" height="30" as="geometry" />
        </mxCell>
        <mxCell id="e20dCup7h8Shn3l8CifW-14" value="g_id = 0" style="text;html=1;align=center;verticalAlign=middle;resizable=0;points=[];autosize=1;strokeColor=none;fillColor=none;" vertex="1" parent="1">
          <mxGeometry x="60" y="408" width="70" height="30" as="geometry" />
        </mxCell>
      </root>
    </mxGraphModel>
  </diagram>
</mxfile>
